<?xml version="1.0" encoding="utf-8"?>
<svg width="500px" height="500px" viewBox="0 0 500 500" version="1.1" xmlns:xlink="http://www.w3.org/1999/xlink" xmlns="http://www.w3.org/2000/svg">
  <defs>
    <filter filterUnits="userSpaceOnUse" color-interpolation-filters="sRGB" id="filter_1">
      <feFlood flood-opacity="0" result="BackgroundImageFix" />
      <feColorMatrix in="SourceAlpha" type="matrix" values="0 0 0 0 0 0 0 0 0 0 0 0 0 0 0 0 0 0 127 0" />
      <feOffset dx="0" dy="0" />
      <feGaussianBlur stdDeviation="7.5" />
      <feColorMatrix type="matrix" values="0 0 0 0 0.07450981 0 0 0 0 0.32156864 0 0 0 0 1 0 0 0 1 0" />
      <feBlend mode="normal" in2="BackgroundImageFix" result="effect0_dropShadow" />
      <feBlend mode="normal" in="SourceGraphic" in2="effect0_dropShadow" result="shape" />
    </filter>
    <rect width="500" height="500" id="artboard_1" />
    <clipPath id="clip_1">
      <use xlink:href="#artboard_1" clip-rule="evenodd" />
    </clipPath>
  </defs>
  <g id="ArcLoader-Logo" clip-path="url(#clip_1)">
    <g id="ArcLoader" transform="translate(-6.5 34.5)" artboard="48d550cb-00c6-4308-a0ac-aa799bf0f31d">
      <g id="Arc" fill="#FFFFFF" filter="url(#filter_1)" transform="translate(22.5 22.5)">
        <path d="M112.686 176.072L59.6191 176.072L39.9609 208.084C38.5286 210.376 36.5234 211.521 33.9453 211.521Q31.0449 211.521 28.9502 209.427Q26.8555 207.332 26.8555 204.432Q26.8555 202.391 27.9297 200.672L106.025 73.0547Q108.066 69.7246 112.148 69.7246Q118.701 69.7246 119.238 76.2773L129.121 204.646C129.121 209.23 126.722 211.521 121.924 211.521C117.627 211.521 115.299 209.337 114.941 204.969L112.686 176.072ZM111.611 161.893L106.777 99.0508L68.3203 161.893L111.611 161.893ZM216.563 117.635Q217.959 112.264 223.438 112.264L267.48 112.264Q274.463 112.264 274.463 119.354Q274.463 120.32 274.248 121.18L270.488 135.359Q269.092 140.623 263.828 140.623Q261.143 140.623 258.833 138.528Q256.523 136.434 256.523 133.748Q256.523 132.781 256.846 131.6L258.242 126.443L228.916 126.443L207.432 206.258C206.501 209.767 204.245 211.521 200.664 211.521Q197.979 211.521 195.723 209.427Q193.467 207.332 193.467 204.646Q193.467 203.68 193.789 202.498L216.563 117.635ZM374.258 211.521L398.213 211.521Q405.303 211.521 405.303 204.432Q405.303 197.342 398.213 197.342L378.018 197.342Q366.416 197.342 366.416 187.674Q366.416 186.385 367.275 183.162L378.555 140.623Q382.207 126.443 397.139 126.443L421.094 126.443Q424.639 126.443 426.411 124.671Q428.184 122.898 428.184 119.354Q428.184 112.264 421.094 112.264L400.898 112.264Q390.264 112.264 383.066 115.164Q369.209 120.75 363.945 140.623L352.559 183.162Q351.807 185.955 351.807 188.963Q351.807 198.201 358.413 204.861Q365.02 211.521 374.258 211.521Z" />
      </g>
      <path d="M408.5 355C369.553 356.181 175.75 354.618 164 324.743C152.25 294.868 456.224 275.186 425 247C393.776 218.814 49.5 235 49.5 235" id="Vector" fill="none" fill-rule="evenodd" stroke="#FFFFFF" stroke-width="30" filter="url(#filter_1)" />
    </g>
  </g>
</svg>